<svg id="Layer_1" data-name="Layer 1" xmlns="http://www.w3.org/2000/svg" xmlns:xlink="http://www.w3.org/1999/xlink" viewBox="0 0 1113.08 1113.08"><defs><style>.cls-1{fill:url(#linear-gradient);}.cls-2{fill:#231f20;}.cls-3,.cls-4{fill:#fff;}.cls-4{font-size:14px;font-family:RobotoMono-MediumItalic, Roboto Mono;font-style:italic;letter-spacing:-0.05em;}</style><linearGradient id="linear-gradient" x1="658.51" y1="436.26" x2="865.36" y2="643.11" gradientUnits="userSpaceOnUse"><stop offset="0" stop-color="#fff33b"/><stop offset="0.04" stop-color="#fee72e"/><stop offset="0.12" stop-color="#fed51b"/><stop offset="0.2" stop-color="#fdca10"/><stop offset="0.28" stop-color="#fdc70c"/><stop offset="0.67" stop-color="#f9ed32"/></linearGradient></defs><title>The Pod Applogo</title><path class="cls-1" d="M866.19,583.77a141.27,141.27,0,0,1-282.54,0c0-78,53.54-189.83,282.54-220.74Z"/><path class="cls-2" d="M276.67,385.66h12.52q39.46,0,67.16,27.13T384,476.72q0,36.81-28.65,63.36t-63.18,26.56h-3V670.23H276.67ZM289.19,556h3q31.87,0,55.59-23.52t23.71-55.78q0-32.25-24.09-56.16t-55.21-23.9h-3Z"/><path class="cls-2" d="M417.82,647.28q-26.18-27.12-26.18-63.18t26.56-62.42q26.56-26.37,63.93-26.37t63.74,26.37q26.37,26.38,26.37,62.61t-25.8,63.18q-25.81,26.95-62.61,26.94h-3.41Q444,674.41,417.82,647.28Zm142.29-62.23q0-32.06-23-55.59t-54.83-23.52q-31.87,0-55.21,23.71t-23.33,55.59q0,31.87,23.33,55.21t55.4,23.34q32.06,0,54.83-23.34T560.11,585.05Z"/><path class="cls-3" d="M805.21,385.66V670.23H793.07V628.88a84.13,84.13,0,0,1-33,33.2q-21.63,12.32-44.39,12.33-37.56,0-63.93-26.37t-26.37-63.18q0-36.8,26.37-63.18t63.93-26.37q23.52,0,45.34,12.52t32.06,33.39V385.66ZM637.5,585.05q0,32.07,22.76,55.4t54.83,23.34q32.06,0,55.4-23.34t23.34-55.21q0-31.87-23.34-55.59t-55.21-23.71q-31.87,0-54.83,23.52T637.5,585.05Z"/><path class="cls-2" d="M450.07,404.81v3H432.51v74h-3.39v-74H411.35v-3Z"/><path class="cls-2" d="M461.57,481.82h-3.29V404.91h3.29v39.64q5.13-10.06,17.77-10.06a20.25,20.25,0,0,1,20.44,20.44v26.9h-3.29v-26.9a17.16,17.16,0,0,0-5-12.37,16.28,16.28,0,0,0-12.12-5.19,17.2,17.2,0,0,0-12.42,5.24,16.7,16.7,0,0,0-5.34,12.32Z"/><path class="cls-2" d="M534.17,483.06h-.92a23.1,23.1,0,0,1-17-7.34,23.6,23.6,0,0,1-7.24-17.1,23,23,0,0,1,7.19-16.89A24.22,24.22,0,0,1,534,434.59q10.58,0,18.18,8.42l-32.24,31.83q6.67,5.34,12.84,5.34a21.62,21.62,0,0,0,11-2.82,24.31,24.31,0,0,0,8.06-7.55V475A23,23,0,0,1,534.17,483.06Zm-1.08-45.59a21.61,21.61,0,0,0-20.79,20.85,21,21,0,0,0,5.44,14.38L547.62,443A21.51,21.51,0,0,0,533.09,437.46Z"/><text class="cls-4" transform="translate(-499.97 508.68)">Lets Share a Ride</text></svg>